<svg width="50" height="51" viewBox="0 0 50 51" fill="none" xmlns="http://www.w3.org/2000/svg">
<path d="M18.8334 45.3751C20.8334 45.9793 22.8542 46.3334 25.0001 46.3334C30.5254 46.3334 35.8245 44.1385 39.7315 40.2315C43.6385 36.3245 45.8334 31.0254 45.8334 25.5001C45.8334 22.7642 45.2945 20.0551 44.2476 17.5275C43.2006 14.9999 41.666 12.7032 39.7315 10.7687C37.7969 8.83414 35.5003 7.29956 32.9727 6.25259C30.445 5.20562 27.736 4.66675 25.0001 4.66675C22.2642 4.66675 19.5551 5.20562 17.0275 6.25259C14.4999 7.29956 12.2032 8.83414 10.2687 10.7687C6.36168 14.6757 4.16675 19.9747 4.16675 25.5001C4.16675 34.3542 9.72925 41.9584 17.5834 44.9584C17.3959 43.3334 17.2084 40.6459 17.5834 38.7917L19.9792 28.5001C19.9792 28.5001 19.3751 27.2917 19.3751 25.3751C19.3751 22.5001 21.1667 20.3542 23.2084 20.3542C25.0001 20.3542 25.8334 21.6667 25.8334 23.3542C25.8334 25.1459 24.6459 27.7084 24.0417 30.1667C23.6876 32.2084 25.1251 34.0001 27.2084 34.0001C30.9167 34.0001 33.7917 30.0417 33.7917 24.4584C33.7917 19.4584 30.2084 16.0417 25.0626 16.0417C19.1876 16.0417 15.7292 20.4167 15.7292 25.0209C15.7292 26.8126 16.3126 28.6251 17.2709 29.8126C17.4584 29.9376 17.4584 30.1042 17.3959 30.4167L16.7917 32.6876C16.7917 33.0417 16.5626 33.1668 16.2084 32.9168C13.5417 31.7501 12.0001 27.9584 12.0001 24.8959C12.0001 18.3126 16.6667 12.3334 25.6667 12.3334C32.8334 12.3334 38.4168 17.4792 38.4168 24.3126C38.4168 31.4792 33.9792 37.2292 27.6251 37.2292C25.6042 37.2292 23.6251 36.1459 22.9167 34.8751L21.5209 39.8126C21.0417 41.6043 19.7292 44.0001 18.8334 45.4376V45.3751Z" fill="black"/>
</svg>
