<svg width="50" height="51" viewBox="0 0 50 51" fill="none" xmlns="http://www.w3.org/2000/svg">
<path fill-rule="evenodd" clip-rule="evenodd" d="M41.2022 9.72909C41.717 9.51241 42.2805 9.43768 42.834 9.51267C43.3875 9.58767 43.9108 9.80965 44.3494 10.1555C44.7881 10.5014 45.1259 10.9585 45.3279 11.4793C45.5299 12 45.5887 12.5654 45.498 13.1166L40.773 41.777C40.3147 44.5416 37.2813 46.127 34.7459 44.7499C32.6251 43.5978 29.4751 41.8228 26.6418 39.9708C25.2251 39.0437 20.8855 36.0749 21.4188 33.9624C21.8772 32.1562 29.1688 25.3687 33.3355 21.3333C34.9709 19.7478 34.2251 18.8333 32.2938 20.2916C27.498 23.9124 19.798 29.4187 17.2522 30.9687C15.0063 32.3353 13.8355 32.5687 12.4355 32.3353C9.88134 31.9103 7.51259 31.252 5.57926 30.4499C2.96676 29.3666 3.09384 25.7749 5.57718 24.7291L41.2022 9.72909Z" fill="black"/>
</svg>
