<svg width="50" height="51" viewBox="0 0 50 51" fill="none" xmlns="http://www.w3.org/2000/svg">
<g clip-path="url(#clip0_534_135)">
<path fill-rule="evenodd" clip-rule="evenodd" d="M48.8542 12.8917C49.2 11.7542 48.8542 10.9167 47.1979 10.9167H41.7292C40.3375 10.9167 39.6958 11.6397 39.3479 12.4376C39.3479 12.4376 36.5667 19.0959 32.6271 23.4209C31.3521 24.6751 30.7729 25.073 30.0771 25.073C29.7292 25.073 29.2062 24.6751 29.2062 23.5355V12.8917C29.2062 11.5251 28.8229 10.9167 27.6646 10.9167H19.0646C18.1958 10.9167 17.6729 11.5501 17.6729 12.1522C17.6729 13.4459 19.6437 13.7459 19.8458 17.3876V25.3001C19.8458 27.0355 19.5271 27.3501 18.8312 27.3501C16.9771 27.3501 12.4667 20.6605 9.78958 13.0063C9.27083 11.5167 8.74583 10.9167 7.34792 10.9167H1.875C0.3125 10.9167 0 11.6397 0 12.4376C0 13.8584 1.85417 20.9167 8.63542 30.2522C13.1562 36.6272 19.5208 40.0834 25.3187 40.0834C28.7958 40.0834 29.225 39.3167 29.225 37.9938V33.1751C29.225 31.6397 29.5542 31.3334 30.6562 31.3334C31.4688 31.3334 32.8583 31.7334 36.1042 34.8063C39.8125 38.4501 40.4229 40.0834 42.5104 40.0834H47.9792C49.5417 40.0834 50.325 39.3167 49.875 37.8001C49.3792 36.2917 47.6083 34.1022 45.2604 31.5042C43.9854 30.0251 42.0729 28.4313 41.4917 27.6334C40.6812 26.6105 40.9125 26.1542 41.4917 25.2438C41.4917 25.2438 48.1583 16.023 48.8521 12.8917" fill="black"/>
</g>
<defs>
<clipPath id="clip0_534_135">
<rect width="50" height="50" fill="white" transform="translate(0 0.5)"/>
</clipPath>
</defs>
</svg>
